<?xml version="1.0" encoding="UTF-8" standalone="no"?>
<svg
   version="1.1"
   id="Layer_1"
   x="0px"
   y="0px"
   viewBox="0 0 60.880004 77.13"
   xml:space="preserve"
   sodipodi:docname="hands-praying-icon.svg"
   inkscape:version="1.3 (0e150ed6c4, 2023-07-21)"
   width="60.880001"
   height="77.129997"
   xmlns:inkscape="http://www.inkscape.org/namespaces/inkscape"
   xmlns:sodipodi="http://sodipodi.sourceforge.net/DTD/sodipodi-0.dtd"
   xmlns="http://www.w3.org/2000/svg"
   xmlns:svg="http://www.w3.org/2000/svg"><defs
     id="defs1" /><sodipodi:namedview
     id="namedview1"
     pagecolor="#ffffff"
     bordercolor="#000000"
     borderopacity="0.25"
     inkscape:showpageshadow="2"
     inkscape:pageopacity="0.0"
     inkscape:pagecheckerboard="0"
     inkscape:deskcolor="#d1d1d1"
     inkscape:zoom="2.6351615"
     inkscape:cx="86.901694"
     inkscape:cy="58.250699"
     inkscape:window-width="1920"
     inkscape:window-height="1009"
     inkscape:window-x="1912"
     inkscape:window-y="-8"
     inkscape:window-maximized="1"
     inkscape:current-layer="Layer_1" /><path
     d="m 52.9,14.08 c -1.32,0 -2.55,0.39 -3.58,1.07 V 13.38 C 49.32,11.57 48.58,9.93 47.39,8.74 46.2,7.55 44.56,6.81 42.75,6.81 h -0.01 c -1.34,0 -2.65,0.41 -3.75,1.18 V 6.56 C 38.99,4.75 38.25,3.11 37.06,1.92 35.89,0.74 34.24,0 32.44,0 30.63,0 28.99,0.74 27.8,1.93 26.61,3.12 25.87,4.76 25.87,6.57 V 8.02 C 24.82,7.31 23.55,6.88 22.19,6.88 c -1.81,0 -3.45,0.74 -4.64,1.93 -1.19,1.19 -1.93,2.83 -1.93,4.64 v 31.21 c -0.08,0.54 -0.13,1.09 -0.13,1.64 v 0 1.84 l -0.16,-0.15 c -1.13,-1.06 -2.23,-2.17 -2.65,-2.58 -2.8,-2.8 -5.82,-3.4 -8.21,-2.64 -1.08,0.34 -2.02,0.95 -2.75,1.76 -0.73,0.81 -1.27,1.81 -1.53,2.93 -0.63,2.65 0.22,5.99 3.52,8.95 l 0.05,0.05 v 0 l 0.01,0.01 c 3.89,3.92 14.64,16.47 20.97,18.99 7.83,3.12 23.6,1.94 29.49,-4.02 3.25,-3.29 5.25,-7.83 5.25,-12.82 V 20.65 c 0,-1.81 -0.74,-3.45 -1.93,-4.64 -1.19,-1.19 -2.84,-1.93 -4.65,-1.93 z M 56.49,46 c 0,0.1 0.01,0.2 0.01,0.31 v 12.31 c 0,4.19 -1.67,7.99 -4.38,10.73 C 47.1,74.43 32.5,75.34 25.85,72.7 20.19,70.45 8.76,57.27 5.89,54.37 5.84,54.32 5.8,54.27 5.74,54.22 L 4.75,55.34 5.74,54.23 C 3.35,52.11 2.69,49.86 3.1,48.15 3.25,47.53 3.54,46.98 3.93,46.54 4.32,46.11 4.82,45.78 5.38,45.6 c 1.42,-0.45 3.3,0 5.2,1.91 0.43,0.43 1.59,1.59 2.72,2.65 1.06,1 2.16,1.95 2.87,2.36 0.24,0.16 0.53,0.25 0.82,0.25 v 0 l 1.18,-0.58 0.35,-5.88 c 0,-11 0.08,-21.82 0.08,-32.85 0,-0.98 0.4,-1.88 1.05,-2.53 0.65,-0.65 1.54,-1.05 2.53,-1.05 0.98,0 1.88,0.4 2.53,1.05 0.65,0.65 1.05,1.54 1.05,2.53 v 21.41 h 3.09 V 6.57 c 0,-0.98 0.4,-1.88 1.05,-2.53 0.65,-0.65 1.54,-1.05 2.53,-1.05 0.98,0 1.88,0.4 2.53,1.05 0.65,0.65 1.05,1.54 1.05,2.53 v 28.29 h 3.16 V 13.38 c 0,-0.98 0.4,-1.88 1.05,-2.53 0.65,-0.65 1.55,-1.05 2.53,-1.05 0.98,0 1.88,0.4 2.53,1.05 0.65,0.65 1.05,1.55 1.05,2.53 v 21.48 h 2.99 V 20.65 c 0,-0.98 0.4,-1.88 1.05,-2.53 0.65,-0.65 1.55,-1.05 2.53,-1.05 0.98,0 1.88,0.4 2.53,1.05 0.65,0.65 1.05,1.55 1.05,2.53 V 34.86 37.07 46 Z"
     id="path1"
     sodipodi:nodetypes="scsssscscssscssscscccccscccccccsssscssccccccccccccscccsssssccsssssccsssssccssssscccccc" /></svg>
